<svg xmlns="http://www.w3.org/2000/svg" viewBox="0 0 1200 630" width="1200" height="630">
  <defs>
    <linearGradient id="bg" x1="0" y1="0" x2="1" y2="1">
      <stop offset="0%" stop-color="#0c0c0d"/>
      <stop offset="50%" stop-color="#16161a"/>
      <stop offset="100%" stop-color="#1d1d22"/>
    </linearGradient>
    <pattern id="grid" width="60" height="60" patternUnits="userSpaceOnUse">
      <path d="M 60 0 L 0 0 0 60" fill="none" stroke="#2a2a31" stroke-width="1"/>
    </pattern>
    <linearGradient id="accentBar" x1="0" y1="0" x2="1" y2="0">
      <stop offset="0%" stop-color="#d46a3b"/>
      <stop offset="100%" stop-color="#f0a574"/>
    </linearGradient>
  </defs>

  <rect width="1200" height="630" fill="url(#bg)"/>
  <rect width="1200" height="630" fill="url(#grid)" opacity="0.5"/>

  <!-- left accent bar -->
  <rect x="0" y="0" width="8" height="630" fill="url(#accentBar)"/>

  <!-- corner marks -->
  <g stroke="#d46a3b" stroke-width="2" fill="none" opacity="0.8">
    <path d="M 80 60 L 80 80 L 100 80"/>
    <path d="M 1120 60 L 1100 60 L 1100 80"/>
    <path d="M 80 570 L 80 550 L 100 550"/>
    <path d="M 1120 570 L 1100 570 L 1100 550"/>
  </g>

  <!-- Kicker line -->
  <g font-family="JetBrains Mono, ui-monospace, monospace" font-size="16" fill="#d46a3b" letter-spacing="4">
    <text x="80" y="130" font-weight="600">WEBSITE DRAFT · V0.1 · 20 APRIL 2026</text>
  </g>

  <!-- Title -->
  <g font-family="Inter, system-ui, sans-serif" fill="#e8e6e1">
    <text x="80" y="240" font-size="74" font-weight="700" letter-spacing="-1.5">Yakima Valley Supply</text>
    <text x="80" y="315" font-size="42" font-weight="500" fill="#a8a49b">&amp; Labor LLC</text>
  </g>

  <!-- Divider -->
  <rect x="80" y="355" width="80" height="3" fill="#d46a3b"/>

  <!-- Subtitle -->
  <g font-family="Inter, system-ui, sans-serif" fill="#a8a49b" font-size="24" font-weight="400">
    <text x="80" y="410">First-draft, five-page website built from Tyler's</text>
    <text x="80" y="445">own templates — click through, leave feedback</text>
    <text x="80" y="480">anywhere on the page.</text>
  </g>

  <!-- Footer strip -->
  <g font-family="JetBrains Mono, ui-monospace, monospace" font-size="14" letter-spacing="3">
    <text x="80" y="560" fill="#6a6760" font-weight="500">STATECRAFT.SYSTEMS/YVS</text>
    <text x="1120" y="560" fill="#6a6760" font-weight="500" text-anchor="end">PROSSER, WASHINGTON</text>
  </g>
</svg>
