<svg xmlns="http://www.w3.org/2000/svg" viewBox="0 0 1200 630" width="1200" height="630">
  <defs>
    <linearGradient id="bg" x1="0" y1="0" x2="1" y2="1">
      <stop offset="0%" stop-color="#0c0c0d"/>
      <stop offset="50%" stop-color="#16161a"/>
      <stop offset="100%" stop-color="#1d1d22"/>
    </linearGradient>
    <pattern id="grid" width="60" height="60" patternUnits="userSpaceOnUse">
      <path d="M 60 0 L 0 0 0 60" fill="none" stroke="#2a2a31" stroke-width="1"/>
    </pattern>
    <linearGradient id="accentBar" x1="0" y1="0" x2="1" y2="0">
      <stop offset="0%" stop-color="#d46a3b"/>
      <stop offset="100%" stop-color="#f0a574"/>
    </linearGradient>
  </defs>

  <rect width="1200" height="630" fill="url(#bg)"/>
  <rect width="1200" height="630" fill="url(#grid)" opacity="0.5"/>

  <!-- left accent bar -->
  <rect x="0" y="0" width="8" height="630" fill="url(#accentBar)"/>

  <!-- corner marks: all four L's open inward toward center -->
  <g stroke="#d46a3b" stroke-width="2" fill="none" opacity="0.85" stroke-linecap="square">
    <!-- top-left: corner at (80,60), arms go right and down -->
    <path d="M 110 60 L 80 60 L 80 90"/>
    <!-- top-right: corner at (1120,60), arms go left and down -->
    <path d="M 1090 60 L 1120 60 L 1120 90"/>
    <!-- bottom-left: corner at (80,570), arms go right and up -->
    <path d="M 110 570 L 80 570 L 80 540"/>
    <!-- bottom-right: corner at (1120,570), arms go left and up -->
    <path d="M 1090 570 L 1120 570 L 1120 540"/>
  </g>

  <!-- Kicker line -->
  <g font-family="JetBrains Mono, ui-monospace, monospace" font-size="16" fill="#d46a3b" letter-spacing="4">
    <text x="80" y="140" font-weight="600">FOR TYLER · WEBSITE DRAFT V0.1 · 20 APRIL 2026</text>
  </g>

  <!-- Title -->
  <g font-family="Inter, system-ui, sans-serif" fill="#e8e6e1">
    <text x="80" y="250" font-size="74" font-weight="700" letter-spacing="-1.5">Yakima Valley Supply</text>
    <text x="80" y="325" font-size="42" font-weight="500" fill="#a8a49b">&amp; Labor LLC</text>
  </g>

  <!-- Divider -->
  <rect x="80" y="365" width="80" height="3" fill="#d46a3b"/>

  <!-- Subtitle -->
  <g font-family="Inter, system-ui, sans-serif" fill="#a8a49b" font-size="24" font-weight="400">
    <text x="80" y="420">A first cut at your website, built from the</text>
    <text x="80" y="455">five templates you sent. Click any element</text>
    <text x="80" y="490">to leave feedback right on the page.</text>
  </g>

  <!-- Footer strip -->
  <g font-family="JetBrains Mono, ui-monospace, monospace" font-size="14" letter-spacing="3">
    <text x="80" y="555" fill="#6a6760" font-weight="500">STATECRAFT.SYSTEMS/YVS</text>
    <text x="1120" y="555" fill="#6a6760" font-weight="500" text-anchor="end">PROSSER, WASHINGTON</text>
  </g>
</svg>
